<?xml version="1.0" encoding="UTF-8"?>
<svg version="1.1" xmlns="http://www.w3.org/2000/svg" width="500" height="176">
<path d="M0 0 C165 0 330 0 500 0 C500 58.08 500 116.16 500 176 C335 176 170 176 0 176 C0 117.92 0 59.84 0 0 Z " fill="#FEFEFE" transform="translate(0,0)"/>
<path d="M0 0 C1.875 2.0625 1.875 2.0625 1.875 4.0625 C2.535 4.0625 3.195 4.0625 3.875 4.0625 C4.535 6.0425 5.195 8.0225 5.875 10.0625 C7.855 9.7325 9.835 9.4025 11.875 9.0625 C11.029375 9.578125 10.18375 10.09375 9.3125 10.625 C6.52330862 12.88221415 6.52330862 12.88221415 6.63671875 16.38671875 C8.01389927 20.47481612 8.45639063 20.81952942 12.0234375 22.828125 C13.75300342 23.68229713 15.49601837 24.50965709 17.25 25.3125 C18.98925176 26.14631776 20.72632852 26.98469128 22.4609375 27.828125 C23.2348584 28.18680664 24.0087793 28.54548828 24.80615234 28.91503906 C26.95020936 30.10421395 28.35815324 31.1377966 29.875 33.0625 C30.25 36.625 30.25 36.625 29.875 40.0625 C28.885 40.7225 27.895 41.3825 26.875 42.0625 C26.978125 41.155 27.08125 40.2475 27.1875 39.3125 C27.22534479 35.96989054 27.22534479 35.96989054 24.83203125 34.12890625 C21.41612683 31.74183434 17.92205856 29.7115391 14.25 27.75 C13.58226562 27.37810547 12.91453125 27.00621094 12.2265625 26.62304688 C10.48434276 25.68747487 8.68183267 24.86622901 6.875 24.0625 C5.885 24.3925 4.895 24.7225 3.875 25.0625 C3.14176204 27.07758358 3.14176204 27.07758358 2.875 29.0625 C3.865 29.0625 4.855 29.0625 5.875 29.0625 C5.875 28.4025 5.875 27.7425 5.875 27.0625 C6.865 27.3925 7.855 27.7225 8.875 28.0625 C10 30.9375 10 30.9375 10.875 34.0625 C11.205 35.0525 11.535 36.0425 11.875 37.0625 C9.895 37.0625 7.915 37.0625 5.875 37.0625 C7.14441497 40.97652949 8.38667694 42.85322873 11.875 45.0625 C9.11223823 44.53981534 6.5489124 43.95380413 3.875 43.0625 C3.318125 44.1246875 2.76125 45.186875 2.1875 46.28125 C-6.97251752 63.38681989 -6.97251752 63.38681989 -13.125 67.0625 C-17.14043157 66.97086152 -19.7387629 64.1668463 -22.6875 61.6875 C-23.63753906 60.89601562 -24.58757812 60.10453125 -25.56640625 59.2890625 C-29.74095395 55.65625 -29.74095395 55.65625 -31.125 54.0625 C-31.125 53.4025 -31.125 52.7425 -31.125 52.0625 C-31.785 52.0625 -32.445 52.0625 -33.125 52.0625 C-33.393125 51.11375 -33.66125 50.165 -33.9375 49.1875 C-34.87486588 45.80982727 -34.87486588 45.80982727 -38.125 44.0625 C-39.26000977 41.6640625 -39.26000977 41.6640625 -40.31640625 38.6875 C-40.70376953 37.62015625 -41.09113281 36.5528125 -41.49023438 35.453125 C-42.08288086 33.77476563 -42.08288086 33.77476563 -42.6875 32.0625 C-43.47554642 29.85240535 -44.26829004 27.6439782 -45.06640625 25.4375 C-45.41388916 24.45523438 -45.76137207 23.47296875 -46.11938477 22.4609375 C-47.00077854 19.93425993 -47.00077854 19.93425993 -49.125 18.0625 C-49.7578125 15.6796875 -49.7578125 15.6796875 -50.25 12.9375 C-50.41757813 12.02742188 -50.58515625 11.11734375 -50.7578125 10.1796875 C-50.87898437 9.48101562 -51.00015625 8.78234375 -51.125 8.0625 C-50.135 8.0625 -49.145 8.0625 -48.125 8.0625 C-43.71513982 19.03373246 -39.32112277 30.00733038 -35.125 41.0625 C-34.50496094 40.28519531 -33.88492188 39.50789063 -33.24609375 38.70703125 C-28.00495075 32.17249384 -28.00495075 32.17249384 -24.625 31.75 C-22.125 32.0625 -22.125 32.0625 -20.0625 32.625 C-17.75743803 33.14549786 -16.37169862 32.6930703 -14.125 32.0625 C-16.29576738 23.86451818 -18.72864541 16.14826276 -22.171875 8.390625 C-23.125 6.0625 -23.125 6.0625 -23.125 4.0625 C-23.785 4.0625 -24.445 4.0625 -25.125 4.0625 C-25.455 5.7125 -25.785 7.3625 -26.125 9.0625 C-26.455 9.0625 -26.785 9.0625 -27.125 9.0625 C-27.25 2.3125 -27.25 2.3125 -26.125 0.0625 C-17.58364666 -2.8619151 -8.04064029 -4.98519698 0 0 Z M1.875 31.0625 C1.215 32.3825 0.555 33.7025 -0.125 35.0625 C0.535 35.0625 1.195 35.0625 1.875 35.0625 C2.205 35.7225 2.535 36.3825 2.875 37.0625 C3.205 35.4125 3.535 33.7625 3.875 32.0625 C3.215 31.7325 2.555 31.4025 1.875 31.0625 Z " fill="#D66E4F" transform="translate(247.125,48.9375)"/>
<path d="M0 0 C3.86237132 2.18173869 7.88945629 4.75827473 9.36328125 9.1328125 C10.34456358 14.66367656 10.40563174 20.26847164 8.6875 25.625 C5.20587262 30.45435411 0.6668123 34.86937505 -5.25 36.3125 C-12.75631312 37.05082588 -17.80103956 35.12612562 -23.625 30.375 C-27.50913313 25.44513873 -27.74106078 20.40299449 -27.62890625 14.32421875 C-26.85471267 8.17057697 -23.90763139 4.60545248 -19.125 0.875 C-12.91074085 -2.50231476 -6.47602428 -3.04754084 0 0 Z " fill="#F7F7F7" transform="translate(341.25,58.6875)"/>
<path d="M0 0 C0.33 0 0.66 0 1 0 C1.020625 0.763125 1.04125 1.52625 1.0625 2.3125 C1.79660949 5.41389118 1.79660949 5.41389118 5.5625 6.8125 C7.2640625 7.4003125 7.2640625 7.4003125 9 8 C7 10 7 10 5.0625 10.75 C1.52018052 12.89686029 0.42834319 16.52026898 -0.6875 20.375 C-0.790625 20.91125 -0.89375 21.4475 -1 22 C-0.01 22 0.98 22 2 22 C1.690625 22.598125 1.38125 23.19625 1.0625 23.8125 C-0.10209704 26.08956772 -0.10209704 26.08956772 -1 29 C-0.34 29 0.32 29 1 29 C1.66 31.97 2.32 34.94 3 38 C2.01 38.495 2.01 38.495 1 39 C0.34786708 41.02463255 0.34786708 41.02463255 0 43 C-0.66 43 -1.32 43 -2 43 C-2.33 43.99 -2.66 44.98 -3 46 C-4.75 47.75 -4.75 47.75 -7 49 C-9.6875 48.8125 -9.6875 48.8125 -12 48 C-12.33 47.34 -12.66 46.68 -13 46 C-14.78962145 45.27915259 -14.78962145 45.27915259 -16.875 44.6875 C-19.78776956 43.64202378 -20.84364792 43.1876225 -22.875 40.75 C-25.27521562 34.88280625 -26.68951822 31.09041254 -24.2578125 25.203125 C-23.52570039 23.46000093 -22.76476991 21.72904501 -22 20 C-17.05 19.67 -12.1 19.34 -7 19 C-6.67 17.35 -6.34 15.7 -6 14 C-5.34 13.01 -4.68 12.02 -4 11 C-4 12.65 -4 14.3 -4 16 C-3.34 15.67 -2.68 15.34 -2 15 C-2 13.35 -2 11.7 -2 10 C-2.66 10 -3.32 10 -4 10 C-3.4359146 6.05140217 -2.2568294 3.29120954 0 0 Z " fill="#E06F50" transform="translate(241,64)"/>
<path d="M0 0 C20.67857143 0 20.67857143 0 25.9375 4.75 C27.56642957 8.19949791 27.03214623 10.38748821 26 14 C22.81578297 17.27266751 20.34244032 18.26302387 16 20 C19.3 25.28 22.6 30.56 26 36 C24.515 36.495 24.515 36.495 23 37 C21.72651788 35.27278316 20.45632943 33.54313762 19.1875 31.8125 C18.47980469 30.84957031 17.77210938 29.88664062 17.04296875 28.89453125 C12 21.74952199 12 21.74952199 12 19 C7.29157376 21.11326526 7.29157376 21.11326526 4 25 C3.54084493 27.96842658 3.54084493 27.96842658 3.375 31.1875 C3.30023438 32.27417969 3.22546875 33.36085937 3.1484375 34.48046875 C3.09945313 35.31191406 3.05046875 36.14335938 3 37 C2.01 37 1.02 37 0 37 C0 24.79 0 12.58 0 0 Z " fill="#F1F1F1" transform="translate(358,57)"/>
<path d="M0 0 C4.40344924 1.64066738 8.48540521 3.7342977 12.625 5.9375 C13.29273438 6.28490234 13.96046875 6.63230469 14.6484375 6.99023438 C21.20763341 10.4731674 21.20763341 10.4731674 23 13 C23 16.5 23 16.5 22 20 C18.85807057 23.14192943 15.93394033 23.16344085 11.6875 23.1875 C10.12448483 23.13958275 8.56160485 23.08187055 7 23 C7 22.34 7 21.68 7 21 C6.195625 20.773125 5.39125 20.54625 4.5625 20.3125 C3.2940625 19.6628125 3.2940625 19.6628125 2 19 C1.1875 16.375 1.1875 16.375 1 14 C2.98 14 4.96 14 7 14 C5.68 11.36 4.36 8.72 3 6 C1.15953612 6 -0.39629594 7.17228177 -2 8 C-2.6875 6.25 -2.6875 6.25 -3 4 C-1.5625 1.75 -1.5625 1.75 0 0 Z M-3 8 C-2.34 8.66 -1.68 9.32 -1 10 C-1.66 11.32 -2.32 12.64 -3 14 C-3 13.34 -3 12.68 -3 12 C-3.66 11.67 -4.32 11.34 -5 11 C-4.34 10.01 -3.68 9.02 -3 8 Z " fill="#C9755E" transform="translate(252,72)"/>
<path d="M0 0 C0.99 0 1.98 0 3 0 C5.67786242 6.66221829 8.34273513 13.32954151 11 20 C11.28697754 20.71768555 11.57395508 21.43537109 11.86962891 22.17480469 C12.58522504 23.96852959 13.29297028 25.76538124 14 27.5625 C14.391875 28.55378906 14.78375 29.54507813 15.1875 30.56640625 C16 33 16 33 16 36 C15.01 36 14.02 36 13 36 C12.73445313 35.37351563 12.46890625 34.74703125 12.1953125 34.1015625 C11.84210938 33.28429687 11.48890625 32.46703125 11.125 31.625 C10.77695313 30.81289062 10.42890625 30.00078125 10.0703125 29.1640625 C9.07553933 26.86197701 9.07553933 26.86197701 7 25 C4.47999712 24.89902427 2.02418913 25.06866902 -0.4921875 25.22265625 C-3.5060079 24.95507407 -4.77280666 23.98375593 -7 22 C-7.99 23.32 -8.98 24.64 -10 26 C-9.50719426 19.92206254 -7.27731489 14.11538568 -4 9 C-0.6875 7.8125 -0.6875 7.8125 2 8 C1.34 5.36 0.68 2.72 0 0 Z " fill="#E1E1E1" transform="translate(135,58)"/>
<path d="M0 0 C0.99 0 1.98 0 3 0 C3.27714844 0.86367188 3.55429688 1.72734375 3.83984375 2.6171875 C5.31084777 6.90637769 7.09290666 11.02974668 8.87890625 15.1953125 C9.79036224 17.47554037 10.49022204 19.60576194 11 22 C10.01 21.67 9.02 21.34 8 21 C4.9395431 20.73221002 1.87947504 20.555558 -1.1875 20.37890625 C-4 20 -4 20 -7 18 C-6.45820789 13.44894625 -5.37999159 9.93613994 -3 6 C-2.01 5.67 -1.02 5.34 0 5 C-0.2784375 4.0409375 -0.2784375 4.0409375 -0.5625 3.0625 C-0.706875 2.381875 -0.85125 1.70125 -1 1 C-0.67 0.67 -0.34 0.34 0 0 Z " fill="#E5E5E5" transform="translate(195,62)"/>
<path d="M0 0 C7.92 0 15.84 0 24 0 C24 0.99 24 1.98 24 3 C17.07 2.34 10.14 1.68 3 1 C3 12.55 3 24.1 3 36 C13.395 35.505 13.395 35.505 24 35 C24 35.99 24 36.98 24 38 C16.08 38 8.16 38 0 38 C0 25.46 0 12.92 0 0 Z " fill="#131313" transform="translate(391,57)"/>
<path d="M0 0 C0.99 0 1.98 0 3 0 C3 11.88 3 23.76 3 36 C13.395 35.505 13.395 35.505 24 35 C24 35.99 24 36.98 24 38 C16.08 38 8.16 38 0 38 C0 25.46 0 12.92 0 0 Z " fill="#505050" transform="translate(157,57)"/>
<path d="M0 0 C9.9 0 19.8 0 30 0 C30 0.99 30 1.98 30 3 C25.38 2.34 20.76 1.68 16 1 C16 12.88 16 24.76 16 37 C15.01 37 14.02 37 13 37 C13 25.12 13 13.24 13 1 C8.71 1.66 4.42 2.32 0 3 C0 2.01 0 1.02 0 0 Z " fill="#353535" transform="translate(281,57)"/>
<path d="M0 0 C1.32 0 2.64 0 4 0 C4 12.54 4 25.08 4 38 C2.68 38 1.36 38 0 38 C-0.01981934 37.44014404 -0.03963867 36.88028809 -0.06005859 36.3034668 C-0.15537783 33.76434146 -0.26502753 31.22603112 -0.375 28.6875 C-0.4059375 27.80642578 -0.436875 26.92535156 -0.46875 26.01757812 C-0.50742188 25.17001953 -0.54609375 24.32246094 -0.5859375 23.44921875 C-0.6173584 22.66893311 -0.6487793 21.88864746 -0.68115234 21.0847168 C-0.89587889 18.69844232 -0.89587889 18.69844232 -3 16 C-2.34 16 -1.68 16 -1 16 C-0.67 10.72 -0.34 5.44 0 0 Z " fill="#515151" transform="translate(112,57)"/>
<path d="M0 0 C0.66 0.33 1.32 0.66 2 1 C1.67 1.33 1.34 1.66 1 2 C0.66406356 5.37366891 0.66406356 5.37366891 2 9 C4.85613481 11.29655928 8.05525363 12.73046595 11.375 14.25 C13.11425176 15.08381776 14.85132852 15.92219128 16.5859375 16.765625 C17.3598584 17.12430664 18.1337793 17.48298828 18.93115234 17.85253906 C21.07520936 19.04171395 22.48315324 20.0752966 24 22 C24.375 25.5625 24.375 25.5625 24 29 C23.01 29.66 22.02 30.32 21 31 C21.103125 30.0925 21.20625 29.185 21.3125 28.25 C21.34659305 24.92203123 21.34659305 24.92203123 19.0234375 23.08203125 C14.57003555 20.01528288 9.80289624 17.68373838 4.97460938 15.26757812 C3.86762695 14.70006836 3.86762695 14.70006836 2.73828125 14.12109375 C2.06837158 13.7852124 1.39846191 13.44933105 0.70825195 13.10327148 C-1 12 -1 12 -3 9 C-2.54716981 2.54716981 -2.54716981 2.54716981 0 0 Z " fill="#171615" transform="translate(253,60)"/>
<path d="M0 0 C5.69022391 1.8967413 9.7729218 3.7729218 14 8 C14 10.375 14 10.375 13 13 C8.02702703 17 8.02702703 17 4 17 C2.68 11.39 1.36 5.78 0 0 Z " fill="#F8FBFB" transform="translate(261,77)"/>
<path d="M0 0 C3.38266921 0.2818891 4.81072018 0.83064437 7.375 3.125 C9 6 9 6 9.0625 9.5625 C7.79402394 13.66639314 6.6196918 14.77882548 3 17 C1.35 17.66 -0.3 18.32 -2 19 C1.3 24.28 4.6 29.56 8 35 C6.515 35.495 6.515 35.495 5 36 C0.37081413 29.8876769 -3.83146525 23.99718091 -7 17 C-5.741875 16.731875 -4.48375 16.46375 -3.1875 16.1875 C-0.84890779 15.58319122 0.91617348 15.049772 3 13.8125 C4.67827568 10.77062533 4.40960567 8.39387553 4 5 C2.14283813 2.09190457 2.14283813 2.09190457 0 0 Z " fill="#313131" transform="translate(376,58)"/>
<path d="M0 0 C1.1127832 -0.01836914 1.1127832 -0.01836914 2.24804688 -0.03710938 C4.18763629 -0.04238478 6.1267371 0.06561098 8.0625 0.1875 C10.0625 2.1875 10.0625 2.1875 10.0625 5.1875 C6.4325 5.1875 2.8025 5.1875 -0.9375 5.1875 C-0.586875 6.095 -0.23625 7.0025 0.125 7.9375 C1.02718779 11.06508436 1.19631507 12.23958081 0.0625 15.1875 C-1.2575 15.1875 -2.5775 15.1875 -3.9375 15.1875 C-4.2675 12.2175 -4.5975 9.2475 -4.9375 6.1875 C-5.5975 6.1875 -6.2575 6.1875 -6.9375 6.1875 C-6.9375 4.8675 -6.9375 3.5475 -6.9375 2.1875 C-7.5975 1.8575 -8.2575 1.5275 -8.9375 1.1875 C-6.89483571 -0.85516429 -2.80058566 0.00242056 0 0 Z " fill="#E36D4B" transform="translate(232.9375,48.8125)"/>
<path d="M0 0 C0.99 0 1.98 0 3 0 C7.99090356 12.22942948 12.72580602 24.50122063 17 37 C15.14306641 36.82983398 15.14306641 36.82983398 13 36 C11.75146484 33.71508789 11.75146484 33.71508789 10.7109375 30.72265625 C10.32679688 29.65208984 9.94265625 28.58152344 9.546875 27.47851562 C9.16015625 26.35123047 8.7734375 25.22394531 8.375 24.0625 C7.59583267 21.84340088 6.81219271 19.62586558 6.0234375 17.41015625 C5.68231934 16.42152588 5.34120117 15.43289551 4.98974609 14.41430664 C4.12869922 11.87133406 4.12869922 11.87133406 2 10 C1.3671875 7.6171875 1.3671875 7.6171875 0.875 4.875 C0.70742187 3.96492188 0.53984375 3.05484375 0.3671875 2.1171875 C0.24601563 1.41851562 0.12484375 0.71984375 0 0 Z " fill="#1B1715" transform="translate(196,57)"/>
<path d="M0 0 C0.99 0 1.98 0 3 0 C5.67786242 6.66221829 8.34273513 13.32954151 11 20 C11.43046631 21.07652832 11.43046631 21.07652832 11.86962891 22.17480469 C12.58522504 23.96852959 13.29297028 25.76538124 14 27.5625 C14.391875 28.55378906 14.78375 29.54507813 15.1875 30.56640625 C16 33 16 33 16 36 C15.01 36 14.02 36 13 36 C11.61927983 32.42207611 10.2435034 28.84227635 8.86962891 25.26171875 C8.24059113 23.62572606 7.60983945 21.99039201 6.97802734 20.35546875 C5.87811554 17.50898559 4.78258624 14.66084266 3.6875 11.8125 C3.32591797 10.87962158 2.96433594 9.94674316 2.59179688 8.9855957 C2.25599609 8.10991943 1.92019531 7.23424316 1.57421875 6.33203125 C1.27088623 5.54546143 0.96755371 4.7588916 0.6550293 3.94848633 C0 2 0 2 0 0 Z " fill="#1F1F1F" transform="translate(135,58)"/>
<path d="M0 0 C3 2 3 2 3.671875 3.7890625 C4.66910004 10.50845983 5.10879767 17.3007 1 23 C-3.01573211 27.11488599 -7.11722133 30.79640861 -13.0859375 31.109375 C-15.05758022 31.12321109 -17.02944059 31.06679862 -19 31 C-19.33 30.34 -19.66 29.68 -20 29 C-19.14728516 28.85304688 -19.14728516 28.85304688 -18.27734375 28.703125 C-11.34650371 27.36092559 -6.1148349 25.72702396 -1.625 19.9375 C0.49611122 16.10318357 1.13798222 13.37908797 1.125 9.0625 C1.12757813 8.20785156 1.13015625 7.35320312 1.1328125 6.47265625 C1.00930254 4.17319148 0.64420687 2.20359652 0 0 Z " fill="#303030" transform="translate(347,64)"/>
<path d="M0 0 C1.32 0.33 2.64 0.66 4 1 C4.83796731 5.65537393 5.0161692 9.37078475 4 14 C2.2508503 14.33776684 0.50063855 14.67003671 -1.25 15 C-2.71179688 15.2784375 -2.71179688 15.2784375 -4.203125 15.5625 C-7 16 -7 16 -11 16 C-13.67876143 21.25037241 -14.31752609 24.07113262 -13 30 C-12.814375 30.969375 -12.62875 31.93875 -12.4375 32.9375 C-12.293125 33.618125 -12.14875 34.29875 -12 35 C-12.66 34.67 -13.32 34.34 -14 34 C-14 33.34 -14 32.68 -14 32 C-14.66 32 -15.32 32 -16 32 C-17.48697062 27.99370336 -18.55872631 24.61631539 -17.125 20.46875 C-15.07289069 16.7065496 -13.61275678 14.40850452 -10 12 C-7.44790514 11.80368501 -5.40857267 11.88857109 -2.9375 12.5625 C-0.6508549 13.23165046 -0.6508549 13.23165046 3 12 C2.01 8.04 1.02 4.08 0 0 Z " fill="#CE7C67" transform="translate(230,69)"/>
<path d="M0 0 C0.639375 0.33 1.27875 0.66 1.9375 1 C-1.0625 2 -1.0625 2 -4.3125 1.875 C-10.61849768 2.08519992 -15.56812148 4.63046533 -20.0625 9 C-23.65099803 14.2545864 -23.74386254 19.8250258 -24.0625 26 C-26.69082343 23.37167657 -26.42111892 22.04065032 -26.5 18.375 C-26.39165521 12.35102962 -25.16711841 8.43598083 -21.0625 4 C-14.56616805 -1.06713892 -7.90041665 -2.57972789 0 0 Z " fill="#1C1C1C" transform="translate(340.0625,58)"/>
<path d="M0 0 C0.99 0 1.98 0 3 0 C4.00825298 12.11454735 3.86492206 23.87778462 3 36 C2.01 36 1.02 36 0 36 C0 24.12 0 12.24 0 0 Z " fill="#1A1A1A" transform="translate(88,58)"/>
<path d="M0 0 C0.99 0 1.98 0 3 0 C3 11.88 3 23.76 3 36 C2.01 36 1.02 36 0 36 C0 24.12 0 12.24 0 0 Z " fill="#161616" transform="translate(358,58)"/>
<path d="M0 0 C1.875 2.0625 1.875 2.0625 1.875 4.0625 C2.535 4.0625 3.195 4.0625 3.875 4.0625 C4.535 6.0425 5.195 8.0225 5.875 10.0625 C7.855 9.7325 9.835 9.4025 11.875 9.0625 C9.875 11.0625 9.875 11.0625 7.375 11.6875 C4.75280005 12.78665952 4.75280005 12.78665952 4.10546875 14.96875 C3.61288731 16.98160077 3.23700324 19.02211808 2.875 21.0625 C2.215 21.0625 1.555 21.0625 0.875 21.0625 C0.69664485 16.51444365 0.87714565 13.1830746 2.875 9.0625 C2.215 9.0625 1.555 9.0625 0.875 9.0625 C0.58625 7.928125 0.2975 6.79375 0 5.625 C-0.37125 4.449375 -0.7425 3.27375 -1.125 2.0625 C-3.36147631 0.94426185 -4.77391529 0.86853939 -7.2578125 0.74609375 C-8.06347656 0.70419922 -8.86914062 0.66230469 -9.69921875 0.61914062 C-10.54097656 0.57982422 -11.38273438 0.54050781 -12.25 0.5 C-13.09949219 0.45681641 -13.94898438 0.41363281 -14.82421875 0.36914062 C-16.92428223 0.26295764 -19.02461948 0.16221503 -21.125 0.0625 C-14.26385477 -3.61311352 -6.79544504 -4.21317593 0 0 Z " fill="#B97868" transform="translate(247.125,48.9375)"/>
<path d="M0 0 C1.32 1.32 2.64 2.64 4 4 C2.32972034 6.86456819 0.63569915 9.71440913 -1.0625 12.5625 C-1.52849609 13.36236328 -1.99449219 14.16222656 -2.47460938 14.98632812 C-8.92404514 25.73538773 -8.92404514 25.73538773 -14 29 C-17.42185919 28.61726315 -19.22880898 27.2162688 -21.75 24.9375 C-22.36359375 24.38964844 -22.9771875 23.84179688 -23.609375 23.27734375 C-24.06828125 22.85582031 -24.5271875 22.43429688 -25 22 C-24.34 21.67 -23.68 21.34 -23 21 C-19.26415094 22.47169811 -19.26415094 22.47169811 -18 25 C-13.62853208 24.51428134 -11.9591701 23.16325079 -9 20 C-8.34 20 -7.68 20 -7 20 C-6.89816406 19.31292969 -6.79632813 18.62585938 -6.69140625 17.91796875 C-5.86789454 14.4424702 -4.48830564 11.52776371 -2.9375 8.3125 C-0.79237432 4.32256871 -0.79237432 4.32256871 0 0 Z " fill="#CD7C65" transform="translate(248,87)"/>
<path d="M0 0 C1.87498437 2.81247655 2.95940338 5.22357209 4.125 8.375 C4.47820312 9.31085938 4.83140625 10.24671875 5.1953125 11.2109375 C5.99013202 13.96579739 6.15533287 16.15223068 6 19 C2.8590068 20.88173397 1.03010767 21.15214965 -2.5625 20.5625 C-5.70175206 20.05958441 -6.88811725 19.96270575 -10 21 C-10.71247732 22.6476038 -11.37400383 24.31763529 -12 26 C-12.95824253 27.36365283 -13.94721175 28.70794169 -15 30 C-16.42944945 27.64561267 -17.08661261 26.51967567 -16.625 23.75 C-16.41875 23.1725 -16.2125 22.595 -16 22 C-14.35 22 -12.7 22 -11 22 C-11 21.34 -11 20.68 -11 20 C-10.34 20 -9.68 20 -9 20 C-9 19.34 -9 18.68 -9 18 C-5.04 18 -1.08 18 3 18 C2.31964591 13.38119835 2.31964591 13.38119835 0.9453125 10.984375 C-0.19688433 8.58670563 -0.20263386 6.8895511 -0.125 4.25 C-0.10695312 3.45078125 -0.08890625 2.6515625 -0.0703125 1.828125 C-0.04710937 1.22484375 -0.02390625 0.6215625 0 0 Z " fill="#FDE3D3" transform="translate(227,62)"/>
<path d="M0 0 C2.57200067 0.36846077 3.72642932 0.68714574 5.46386719 2.67407227 C6.12370605 3.73452759 6.12370605 3.73452759 6.796875 4.81640625 C7.52197266 5.96206055 7.52197266 5.96206055 8.26171875 7.13085938 C8.75285156 7.93330078 9.24398438 8.73574219 9.75 9.5625 C10.25660156 10.36880859 10.76320313 11.17511719 11.28515625 12.00585938 C12.53432534 13.99745915 13.77192544 15.99534889 15 18 C14.01 18.33 13.02 18.66 12 19 C7.37081413 12.8876769 3.16853475 6.99718091 0 0 Z " fill="#171717" transform="translate(369,75)"/>
<path d="M0 0 C6.75 2.25 6.75 2.25 10 5 C8.68 5.33 7.36 5.66 6 6 C6.165 6.928125 6.33 7.85625 6.5 8.8125 C6.93897276 11.61095134 7 14.18026599 7 17 C6.01 17 5.02 17 4 17 C2.68 11.39 1.36 5.78 0 0 Z " fill="#F1EEE9" transform="translate(261,77)"/>
<path d="M0 0 C2.75 -0.3125 2.75 -0.3125 6 0 C8.600965 2.600965 9.8370444 4.51113321 11 8 C2.99061767 7.22986708 2.99061767 7.22986708 0 4 C0 2.68 0 1.36 0 0 Z " fill="#F9F9F2" transform="translate(253,86)"/>
<path d="M0 0 C0.66 0.33 1.32 0.66 2 1 C1.67 1.33 1.34 1.66 1 2 C1.09308537 5.48618881 1.09308537 5.48618881 2 9 C3.93597032 10.51294288 3.93597032 10.51294288 6 11 C6 11.99 6 12.98 6 14 C6.66 14 7.32 14 8 14 C8 14.66 8 15.32 8 16 C3.05672379 14.73544097 0.05098416 13.16043294 -3 9 C-2.93185849 4.97965076 -2.8823175 2.8823175 0 0 Z " fill="#260804" transform="translate(253,60)"/>
<path d="M0 0 C2.97 0.495 2.97 0.495 6 1 C5.67 2.65 5.34 4.3 5 6 C5.66 6 6.32 6 7 6 C7.66 9.96 8.32 13.92 9 18 C6.74402173 15.74402173 6.03425808 13.95396133 4.875 11 C4.52179688 10.113125 4.16859375 9.22625 3.8046875 8.3125 C3 6 3 6 3 4 C2.34 4 1.68 4 1 4 C0.67 5.65 0.34 7.3 0 9 C-0.33 9 -0.66 9 -1 9 C-1.125 2.25 -1.125 2.25 0 0 Z " fill="#CE7A64" transform="translate(221,49)"/>
<path d="M0 0 C0 0.99 0 1.98 0 3 C-7.92 3 -15.84 3 -24 3 C-20.21777711 0.47851807 -16.95908429 0.55219231 -12.5625 0.375 C-11.79873047 0.33632812 -11.03496094 0.29765625 -10.24804688 0.2578125 C-6.82370639 0.09091688 -3.43043644 0 0 0 Z " fill="#959595" transform="translate(415,92)"/>
<path d="M0 0 C1.36328125 1.37890625 1.36328125 1.37890625 3.23828125 3.81640625 C2.60535156 3.49929687 1.97242188 3.1821875 1.3203125 2.85546875 C-2.81483344 1.46136378 -6.73752087 1.35570104 -11.07421875 1.19140625 C-11.91017578 1.15273438 -12.74613281 1.1140625 -13.60742188 1.07421875 C-15.65851134 0.98045466 -17.7100839 0.8973638 -19.76171875 0.81640625 C-13.85437154 -2.34824404 -5.97585975 -4.01482373 0 0 Z " fill="#CC8069" transform="translate(245.76171875,48.18359375)"/>
<path d="M0 0 C7.92 0 15.84 0 24 0 C24 0.99 24 1.98 24 3 C16.08 2.34 8.16 1.68 0 1 C0 0.67 0 0.34 0 0 Z " fill="#767676" transform="translate(391,57)"/>
<path d="M0 0 C0.33 0 0.66 0 1 0 C1.46963359 4.03884885 1.35683282 5.54121494 -1.1875 8.8125 C-3.98487704 10.9882377 -5.52308771 11.70197895 -9 12 C-8.60167969 11.55269531 -8.20335937 11.10539062 -7.79296875 10.64453125 C-4.8091044 7.23958629 -2.26706762 3.93753849 0 0 Z " fill="#FBE7DE" transform="translate(244,103)"/>
<path d="M0 0 C0.99 0 1.98 0 3 0 C3.99 2.97 4.98 5.94 6 9 C5.34 9 4.68 9 4 9 C4 9.66 4 10.32 4 11 C3.34 10.67 2.68 10.34 2 10 C1.3671875 7.71484375 1.3671875 7.71484375 0.875 4.9375 C0.70742187 4.01839844 0.53984375 3.09929688 0.3671875 2.15234375 C0.24601563 1.44207031 0.12484375 0.73179688 0 0 Z " fill="#383838" transform="translate(196,57)"/>
<path d="M0 0 C0.51949219 0.42152344 1.03898438 0.84304687 1.57421875 1.27734375 C6.70146308 5.43428979 6.70146308 5.43428979 13 7 C13 7.66 13 8.32 13 9 C7.83405051 9.61290926 7.83405051 9.61290926 5 9 C2.76385711 6.97631724 1.28125697 4.72267106 0 2 C0 1.34 0 0.68 0 0 Z " fill="#FDEBDF" transform="translate(222,108)"/>
<path d="M0 0 C0.99 0.66 1.98 1.32 3 2 C2.25 6.75 2.25 6.75 0 9 C-0.99 9 -1.98 9 -3 9 C-2.01 6.03 -1.02 3.06 0 0 Z " fill="#E9E9E6" transform="translate(272,83)"/>
<path d="M0 0 C0.66 0 1.32 0 2 0 C2.99 2.97 3.98 5.94 5 9 C3.68 8.01 2.36 7.02 1 6 C0.67 6.66 0.34 7.32 0 8 C-0.66 8 -1.32 8 -2 8 C-1.125 2.25 -1.125 2.25 0 0 Z " fill="#F8E0D6" transform="translate(222,53)"/>
<path d="M0 0 C9.41002278 -0.3690205 9.41002278 -0.3690205 14 2 C10.5094945 3.16350183 7.66796817 3 4 3 C2.32442621 3.28520405 0.65182755 3.59955696 -1 4 C-0.67 2.68 -0.34 1.36 0 0 Z " fill="#2E2E2E" transform="translate(328,57)"/>
<path d="M0 0 C2.375 0.25 2.375 0.25 5 1 C6.1875 2.875 6.1875 2.875 7 5 C7.99 6.485 7.99 6.485 9 8 C9 8.66 9 9.32 9 10 C8.01 10 7.02 10 6 10 C5.34 8.02 4.68 6.04 4 4 C3.34 4 2.68 4 2 4 C1.34 2.68 0.68 1.36 0 0 Z " fill="#FBF0E4" transform="translate(247,49)"/>
<path d="M0 0 C0.99 0.33 1.98 0.66 3 1 C3.33 2.65 3.66 4.3 4 6 C3.01 6.66 2.02 7.32 1 8 C0.01 7.67 -0.98 7.34 -2 7 C-1.67 6.34 -1.34 5.68 -1 5 C-1.66 4.67 -2.32 4.34 -3 4 C-2.505 3.525625 -2.01 3.05125 -1.5 2.5625 C0.11542197 1.24076302 0.11542197 1.24076302 0 0 Z " fill="#E56B4C" transform="translate(253,76)"/>
<path d="M0 0 C1.65 0 3.3 0 5 0 C3.25 5.75 3.25 5.75 1 8 C-0.42944945 5.64561267 -1.08661261 4.51967567 -0.625 1.75 C-0.41875 1.1725 -0.2125 0.595 0 0 Z " fill="#F7EBE7" transform="translate(211,84)"/>
<path d="M0 0 C1.85200448 2.77800672 2.4857952 4.33441445 3.1875 7.5 C3.36667969 8.2734375 3.54585937 9.046875 3.73046875 9.84375 C4 12 4 12 3 15 C-0.16727335 9.8531808 -0.35050464 5.841744 0 0 Z " fill="#FCEFDE" transform="translate(227,62)"/>
<path d="M0 0 C2.83374881 3.20336822 3.5205537 5.78087253 4 10 C2.0625 9.4375 2.0625 9.4375 0 8 C-0.8125 4.4375 -0.8125 4.4375 -1 1 C-0.67 0.67 -0.34 0.34 0 0 Z " fill="#B47F6F" transform="translate(254,61)"/>
<path d="M0 0 C3.68754757 0.49831724 5.60490662 1.10067643 8 4 C7.34 5.98 6.68 7.96 6 10 C5.67 10 5.34 10 5 10 C4.731875 8.906875 4.46375 7.81375 4.1875 6.6875 C3.12336261 3.38307337 2.65345336 2.05039578 0 0 Z " fill="#212121" transform="translate(376,58)"/>
<path d="M0 0 C1.74991334 -0.02715383 3.49994945 -0.04646551 5.25 -0.0625 C6.71179688 -0.07990234 6.71179688 -0.07990234 8.203125 -0.09765625 C10.65758678 -0.01195577 12.66168914 0.29293934 15 1 C15 1.99 15 2.98 15 4 C14.01 3.67 13.02 3.34 12 3 C7.91405167 1.8134874 4.23657606 1.85134821 0 2 C0 1.34 0 0.68 0 0 Z " fill="#F9E2D7" transform="translate(232,45)"/>
<path d="M0 0 C2.75 -0.3125 2.75 -0.3125 6 0 C8.600965 2.600965 9.8370444 4.51113321 11 8 C10.01 8 9.02 8 8 8 C8 6.68 8 5.36 8 4 C5.09399739 2.74335022 3.20395416 2 0 2 C0 1.34 0 0.68 0 0 Z " fill="#FADED1" transform="translate(253,86)"/>
<path d="M0 0 C0.33 0 0.66 0 1 0 C1 2.31 1 4.62 1 7 C-0.65 7.66 -2.3 8.32 -4 9 C-2.80100302 5.9168649 -1.52299523 2.93720508 0 0 Z " fill="#F9E5DB" transform="translate(249,94)"/>
<path d="M0 0 C2 1 2 1 2.8515625 3.50390625 C3.10679687 4.51324219 3.36203125 5.52257812 3.625 6.5625 C3.88539063 7.57441406 4.14578125 8.58632812 4.4140625 9.62890625 C4.60742188 10.41136719 4.80078125 11.19382812 5 12 C4.01 12 3.02 12 2 12 C0.70756464 7.8803623 -0.26252625 4.33168317 0 0 Z " fill="#FBE5DC" transform="translate(263,82)"/>
<path d="M0 0 C0.33 0.99 0.66 1.98 1 3 C-1.31 4.98 -3.62 6.96 -6 9 C-6 6 -6 6 -4.6875 4.39453125 C-4.130625 3.87246094 -3.57375 3.35039063 -3 2.8125 C-2.443125 2.28269531 -1.88625 1.75289063 -1.3125 1.20703125 C-0.6628125 0.60955078 -0.6628125 0.60955078 0 0 Z " fill="#0A0A0A" transform="translate(348,83)"/>
<path d="M0 0 C0.99 0.33 1.98 0.66 3 1 C3.1875 4.375 3.1875 4.375 3 8 C2.01 8.66 1.02 9.32 0 10 C0 6.7 0 3.4 0 0 Z " fill="#0E0E0E" transform="translate(274,81)"/>
<path d="M0 0 C0.99 0 1.98 0 3 0 C3 0.66 3 1.32 3 2 C4.32 2.33 5.64 2.66 7 3 C5.1875 4.0625 5.1875 4.0625 3 5 C2.01 4.67 1.02 4.34 0 4 C0 2.68 0 1.36 0 0 Z " fill="#D5724D" transform="translate(221,86)"/>
<path d="M0 0 C1.5625 1.75 1.5625 1.75 3 4 C2.6875 6.25 2.6875 6.25 2 8 C-1.875 3.25 -1.875 3.25 -3 1 C-2.01 0.67 -1.02 0.34 0 0 Z " fill="#CB8176" transform="translate(262,85)"/>
<path d="M0 0 C1.8125 0.1875 1.8125 0.1875 4 1 C5.75 3.5625 5.75 3.5625 7 6 C4.625 5.8125 4.625 5.8125 2 5 C0.6875 2.4375 0.6875 2.4375 0 0 Z " fill="#202020" transform="translate(369,75)"/>
<path d="M0 0 C0.99 0.33 1.98 0.66 3 1 C3.33 3.31 3.66 5.62 4 8 C3.34 8 2.68 8 2 8 C0.74335022 5.09399739 0 3.20395416 0 0 Z " fill="#121212" transform="translate(200,66)"/>
<path d="M0 0 C-0.57344937 2.86724686 -0.8614515 3.8614515 -3 6 C-3 5.01 -3 4.02 -3 3 C-3.99 2.67 -4.98 2.34 -6 2 C-6 1.34 -6 0.68 -6 0 C-2.25 -1.125 -2.25 -1.125 0 0 Z " fill="#C26B50" transform="translate(252,70)"/>
<path d="M0 0 C3.3 0 6.6 0 10 0 C10 0.33 10 0.66 10 1 C8.02 1 6.04 1 4 1 C3.67 1.99 3.34 2.98 3 4 C2.01 3.67 1.02 3.34 0 3 C0 2.01 0 1.02 0 0 Z " fill="#C8C8C8" transform="translate(259,57)"/>
<path d="M0 0 C0.99 0 1.98 0 3 0 C3.33 2.31 3.66 4.62 4 7 C3.34 7 2.68 7 2 7 C1.34 4.69 0.68 2.38 0 0 Z " fill="#151515" transform="translate(135,58)"/>
<path d="M0 0 C2.35953094 2.35953094 2.49141413 3.77895617 3 7 C2.01 7.33 1.02 7.66 0 8 C-1.125 2.25 -1.125 2.25 0 0 Z " fill="#222222" transform="translate(204,72)"/>
<path d="M0 0 C0.66 0 1.32 0 2 0 C2.33 1.32 2.66 2.64 3 4 C2.34 4 1.68 4 1 4 C0.67 5.65 0.34 7.3 0 9 C-0.33 9 -0.66 9 -1 9 C-1.125 2.25 -1.125 2.25 0 0 Z " fill="#C5938A" transform="translate(221,49)"/>
<path d="M0 0 C2.74148672 0.37047118 4.58593199 0.68587944 6.8125 2.375 C8 4 8 4 8 7 C7.34 7 6.68 7 6 7 C5.62875 6.1028125 5.62875 6.1028125 5.25 5.1875 C3.83629988 2.71352479 2.34944617 1.56629745 0 0 Z " fill="#4A4A4A" transform="translate(269,58)"/>
</svg>
